<svg width="20" height="20" viewBox="0 0 20 20" fill="none" xmlns="http://www.w3.org/2000/svg">
<path fill-rule="evenodd" clip-rule="evenodd" d="M9.74288 10.403C9.6908 10.4062 9.63858 10.4062 9.5865 10.403L9.12695 14.3973L9.74288 15.1886L10.3811 14.3942L9.97585 10.3809C9.89901 10.3951 9.82105 10.4025 9.74288 10.403Z" fill="#FFB549"/>
<path fill-rule="evenodd" clip-rule="evenodd" d="M0.0208156 10.4431C0.339237 15.6175 4.59367 19.6497 9.73485 19.6498C9.94416 19.6498 10.1535 19.6435 10.3628 19.6308C14.303 19.391 17.7094 16.7751 18.9861 13.0085C20.2629 9.24186 19.1571 5.07066 16.1868 2.44892L15.9388 2.23047L15.5055 2.72753L15.7535 2.94599C19.5212 6.2909 19.8866 12.0824 16.5696 15.8818C13.2526 19.6812 7.5093 20.0497 3.7415 16.7049C-0.0263036 13.3602 -0.391868 7.56865 2.92498 3.76915L3.14162 3.51903L2.64869 3.08212L2.43206 3.33224C0.719696 5.28319 -0.148432 7.84333 0.0208156 10.4431Z" fill="white"/>
<path fill-rule="evenodd" clip-rule="evenodd" d="M13.7471 0.835938L13.4473 1.44302L14.0565 1.74174L14.3531 1.14109L13.7471 0.835938Z" fill="white"/>
<path fill-rule="evenodd" clip-rule="evenodd" d="M11.3408 0.138672L11.2188 0.780497L11.8569 0.905123L11.9852 0.269529L11.3408 0.138672Z" fill="white"/>
<path fill-rule="evenodd" clip-rule="evenodd" d="M15.5263 2.73029L15.9626 2.23179L16.4581 2.67081L16.0217 3.16931L15.5263 2.73029Z" fill="white"/>
<path fill-rule="evenodd" clip-rule="evenodd" d="M6.26328 0.64335L6.89148 0.428925L7.1046 1.06096L6.47641 1.27539L6.26328 0.64335Z" fill="white"/>
<path fill-rule="evenodd" clip-rule="evenodd" d="M4.04102 1.89553L4.40959 2.43901L4.94682 2.07669L4.57825 1.5332L4.04102 1.89553Z" fill="white"/>
<path fill-rule="evenodd" clip-rule="evenodd" d="M8.82554 0.696774L9.47607 0.653226L9.43291 0L8.7793 0.046659L8.82554 0.696774Z" fill="white"/>
<path fill-rule="evenodd" clip-rule="evenodd" d="M16.9475 5.92188L11.0257 9.42614C10.9069 9.95077 10.4766 10.3472 9.94465 10.4221C9.41273 10.497 8.88996 10.2348 8.63125 9.76333L4.85859 8.24755L4.45898 9.25597L9.49339 11.2697C9.72452 11.4157 10.027 11.3745 10.2108 11.172L17.4887 6.85466L16.9475 5.92188Z" fill="white"/>
<circle cx="9.75546" cy="9.12656" r="1.11484" fill="white"/>
</svg>
