<svg width="190" height="311" viewBox="0 0 190 311" fill="none" xmlns="http://www.w3.org/2000/svg">
<g opacity="0.3">
<mask id="mask0_1906_5502" style="mask-type:alpha" maskUnits="userSpaceOnUse" x="0" y="0" width="190" height="311">
<rect x="190" y="311" width="190" height="310.696" transform="rotate(180 190 311)" fill="#37375C"/>
</mask>
<g mask="url(#mask0_1906_5502)">
<path d="M275.252 72.6548C275.94 73.7185 276.368 74.9286 276.5 76.1875C276.633 77.4465 276.468 78.7191 276.017 79.9025C275.251 81.9325 273.715 83.5797 271.741 84.4883C269.767 85.3968 267.515 85.4936 265.47 84.7576C177.149 52.5793 114.465 46.922 73.8369 67.4616C31.2921 88.9697 16.8183 138.065 2.81921 185.545C-3.58185 207.258 -10.2018 229.71 -19.4449 249.173C-24.5338 259.888 -29.995 268.884 -36.1406 276.674C-42.7545 285.168 -50.7317 292.51 -59.7484 298.402C-60.6451 298.995 -61.6509 299.405 -62.7076 299.608C-63.7642 299.811 -64.8506 299.802 -65.9039 299.582C-66.9571 299.363 -67.9562 298.936 -68.8432 298.328C-69.7301 297.72 -70.4872 296.942 -71.0706 296.04C-71.6541 295.137 -72.0522 294.128 -72.2419 293.071C-72.4316 292.014 -72.4091 290.929 -72.1758 289.881C-71.9425 288.832 -71.503 287.841 -70.8827 286.963C-70.2624 286.085 -69.4737 285.339 -68.5623 284.768C-37.5564 264.769 -25.5752 224.132 -12.8919 181.109C-5.58197 156.315 1.9765 130.678 13.6089 108.258C27.1162 82.2256 44.4272 64.1389 66.5303 52.9643C77.1291 47.6059 89.0613 43.7614 101.998 41.5377C115.509 39.2147 130.61 38.5756 146.88 39.6381C163.785 40.7422 182.562 43.7216 202.689 48.4942C223.583 53.4488 246.647 60.5043 271.238 69.4639C272.89 70.0607 274.3 71.1816 275.252 72.6548Z" fill="#4B4B7C"/>
<path d="M276.235 74.3692C277.085 75.6848 277.54 77.2157 277.547 78.7811C277.553 80.3465 277.111 81.881 276.273 83.2038C275.434 84.5266 274.234 85.5823 272.814 86.2464C271.394 86.9104 269.813 87.1551 268.258 86.9515C217.13 80.2041 181.625 87.2525 156.52 109.134C134.229 128.561 122.821 157.148 110.744 187.412C98.4731 218.162 85.7846 249.959 60.5054 272.504C46.6577 284.854 30.4907 293.25 11.0801 298.172C-10.2169 303.573 -34.7975 304.644 -64.0682 301.448C-66.2258 301.201 -68.1976 300.111 -69.5529 298.417C-70.9081 296.723 -71.5367 294.563 -71.3014 292.407C-71.066 290.252 -69.9858 288.278 -68.2967 286.915C-66.6076 285.552 -64.447 284.912 -62.2867 285.135C-11.9529 290.63 24.6335 282.494 49.5621 260.261C71.9562 240.289 83.3841 211.652 95.4839 181.333C107.752 150.589 120.438 118.8 145.718 96.7674C159.559 84.7031 175.744 76.666 195.198 72.1956C216.478 67.308 241.079 66.811 270.408 70.6817C271.589 70.8366 272.722 71.2467 273.729 71.8836C274.735 72.5204 275.591 73.3687 276.235 74.3692Z" fill="#3E3E66"/>
<path d="M276.486 73.9901C276.486 73.99 276.487 73.9902 276.487 73.9905C277.203 75.0948 277.643 76.3545 277.77 77.6638C277.897 78.9733 277.708 80.2942 277.217 81.5154C264.902 112.238 251.711 136.683 236.891 156.244C223.375 174.085 208.759 187.494 192.206 197.241C178.322 205.414 162.834 211.061 144.858 214.501C129.124 217.51 112.975 218.589 97.3578 219.631C44.0892 223.189 -6.22519 226.548 -56.9642 298.165C-57.5893 299.046 -58.382 299.796 -59.2972 300.371C-60.2125 300.946 -61.2321 301.336 -62.2982 301.517C-63.3642 301.699 -64.4557 301.67 -65.5103 301.43C-66.5649 301.191 -67.5619 300.747 -68.4445 300.123C-69.327 299.499 -70.0779 298.707 -70.654 297.794C-71.2302 296.88 -71.6205 295.862 -71.8025 294.798C-71.9846 293.734 -71.955 292.645 -71.7152 291.592C-71.4755 290.539 -71.0304 289.544 -70.4053 288.663C-57.2473 270.091 -43.6564 255.208 -28.8558 243.162C-15.5727 232.351 -1.67279 224.135 13.6384 218.045C41.7562 206.86 69.4622 205.01 96.2564 203.221C159.35 199.008 213.839 195.369 261.93 75.3992C262.491 73.9999 263.426 72.7815 264.634 71.8773C265.842 70.9731 267.276 70.418 268.778 70.2725C270.281 70.1271 271.795 70.3969 273.154 71.0527C274.513 71.7083 275.666 72.7243 276.485 73.9897C276.485 73.9901 276.486 73.9902 276.486 73.9901Z" fill="#3E3E66"/>
<path d="M276.243 74.1878C276.243 74.1877 276.243 74.1878 276.244 74.1881C277.212 75.6834 277.665 77.4529 277.535 79.2284C274.157 126.306 267.607 163.255 257.51 192.188C248.047 219.304 235.57 238.997 219.365 252.396C211.11 259.205 201.695 264.476 191.57 267.956C182.409 271.127 172.441 273.054 161.097 273.843C140.537 275.275 118.966 272.753 96.1277 270.083C43.6779 263.95 -10.5573 257.609 -57.8985 299.375C-59.5345 300.816 -61.6771 301.55 -63.8547 301.414C-66.0323 301.278 -68.0667 300.284 -69.5102 298.651C-70.9538 297.018 -71.6883 294.879 -71.5522 292.705C-71.416 290.532 -70.4205 288.501 -68.7845 287.06C-15.9458 240.442 44.6049 247.523 98.0278 253.769C142.162 258.929 180.278 263.386 208.877 239.74C222.708 228.305 233.538 210.979 241.985 186.772C251.599 159.223 257.863 123.658 261.136 78.0434C261.258 76.3257 261.919 74.6901 263.025 73.3683C264.131 72.0466 265.625 71.1059 267.296 70.6794C268.968 70.2528 270.731 70.3621 272.337 70.9918C273.942 71.6215 275.308 72.7395 276.242 74.1875C276.242 74.1878 276.242 74.1879 276.243 74.1878Z" fill="#4B4B7C"/>
</g>
</g>
</svg>
